<svg xmlns="http://www.w3.org/2000/svg" viewBox="0 0 400 300" role="img" aria-label="50mm f1.8 Prime Lens">
  <defs>
    <linearGradient id="bg" x1="0" y1="0" x2="1" y2="1">
      <stop offset="0" stop-color="#eef7f2"/>
      <stop offset="1" stop-color="#d8ece1"/>
    </linearGradient>
    <linearGradient id="barrel" x1="0" y1="0" x2="0" y2="1">
      <stop offset="0" stop-color="#3c3c3c"/>
      <stop offset="1" stop-color="#161616"/>
    </linearGradient>
  </defs>
  <rect width="400" height="300" fill="url(#bg)"/>
  <circle cx="200" cy="150" r="84" fill="#ffffff" opacity="0.5"/>
  <g transform="translate(200 150)">
    <rect x="-56" y="-70" width="112" height="140" rx="26" fill="url(#barrel)"/>
    <rect x="-56" y="-70" width="112" height="34" rx="16" fill="#000" opacity="0.3"/>
    <rect x="-48" y="-30" width="96" height="8" rx="4" fill="#ff9000" opacity="0.9"/>
    <rect x="-48" y="22" width="96" height="8" rx="4" fill="#575757"/>
    <rect x="-48" y="38" width="96" height="8" rx="4" fill="#575757"/>
    <circle cx="0" cy="0" r="34" fill="#0b0b0b"/>
    <circle cx="0" cy="0" r="28" fill="#122b44"/>
    <circle cx="0" cy="0" r="19" fill="#0a1f36"/>
    <circle cx="-8" cy="-7" r="5.5" fill="#a5dcff" opacity="0.9"/>
    <circle cx="7" cy="6" r="3" fill="#7fb8e8" opacity="0.7"/>
    <rect x="-26" y="58" width="52" height="12" rx="6" fill="#ff9000" opacity="0.85"/>
  </g>
  <text x="200" y="272" text-anchor="middle" font-family="Inter, system-ui, sans-serif" font-size="13" fill="#6b7280" letter-spacing="2">ELEC-LENS-001</text>
</svg>
